<?xml version="1.0" encoding="UTF-8"?>
<svg width="55px" height="51px" viewBox="0 0 55 51" version="1.1" xmlns="http://www.w3.org/2000/svg" xmlns:xlink="http://www.w3.org/1999/xlink">
    <!-- Generator: Sketch 43.1 (39012) - http://www.bohemiancoding.com/sketch -->
    <title>calendar</title>
    <desc>Created with Sketch.</desc>
    <defs></defs>
    <g id="Page-1" stroke="none" stroke-width="1" fill="none" fill-rule="evenodd">
        <g id="3高管个人日报" transform="translate(-15.000000, -233.000000)" fill-rule="nonzero" fill="#51C9F8">
            <g id="c" transform="translate(0.000000, 162.000000)">
                <g id="2" transform="translate(0.000000, 67.000000)">
                    <path d="M65.1419558,4 L62.7129338,4 L62.7129338,9.61573034 C63.6382755,10.0168539 64.2744479,10.9337079 64.2744479,12.0224719 C64.2744479,13.4550562 63.0599369,14.658427 61.6140904,14.658427 C60.168244,14.658427 58.9537329,13.4550562 58.9537329,12.0224719 C58.9537329,10.9337079 59.5899054,10.0168539 60.573081,9.61573034 L60.573081,4 L53.170347,4 L53.170347,9.61573034 C54.0956887,10.0168539 54.7318612,10.9337079 54.7318612,12.0224719 C54.7318612,13.4550562 53.5173502,14.658427 52.0715037,14.658427 C50.6256572,14.658427 49.4111462,13.4550562 49.4111462,12.0224719 C49.4111462,10.9337079 50.0473186,10.0168539 50.9726604,9.61573034 L50.9726604,4 L43.5699264,4 L43.5699264,9.61573034 C44.4952681,10.0168539 45.1314406,10.9337079 45.1314406,12.0224719 C45.1314406,13.4550562 43.9169295,14.658427 42.4710831,14.658427 C41.0252366,14.658427 39.8107256,13.4550562 39.8107256,12.0224719 C39.8107256,10.9337079 40.446898,10.0168539 41.3722397,9.61573034 L41.3722397,4 L33.9695058,4 L33.9695058,9.61573034 C34.8948475,10.0168539 35.5888538,10.9337079 35.5888538,12.0224719 C35.5888538,13.4550562 34.3743428,14.658427 32.9284963,14.658427 C31.4826498,14.658427 30.2681388,13.4550562 30.2681388,12.0224719 C30.2681388,10.9337079 30.9043113,10.0168539 31.829653,9.61573034 L31.829653,4 L24.426919,4 L24.426919,9.61573034 C25.3522608,10.0168539 25.9884332,10.9337079 25.9884332,12.0224719 C25.9884332,13.4550562 24.7739222,14.658427 23.3280757,14.658427 C21.8822292,14.658427 20.6677182,13.4550562 20.6677182,12.0224719 C20.6677182,10.9337079 21.3038906,10.0168539 22.2870662,9.61573034 L22.2870662,4 L19.8580442,4 C17.1976866,4 15,6.17752809 15,8.81348315 L15,50.1865169 C15,52.8224719 17.1976866,55 19.8580442,55 L65.1419558,55 C67.8023134,55 70,52.8224719 70,50.1865169 L70,8.81348315 C70,6.17752809 67.8023134,4 65.1419558,4 Z M67.2239748,50.1865169 C67.2239748,51.2752809 66.298633,52.1921348 65.1997897,52.1921348 L19.915878,52.1921348 C18.8170347,52.1921348 17.891693,51.2752809 17.891693,50.1865169 L17.891693,18.5550562 L67.2239748,18.5550562 L67.2239748,50.1865169 Z" id="calendar"></path>
                </g>
            </g>
        </g>
    </g>
</svg>